<svg width="144" height="80" viewBox="0 0 144 80" fill="none" xmlns="http://www.w3.org/2000/svg">
<path d="M73.5732 18.2694C76.099 16.3876 78.9892 14.7254 81.7675 13.2486C89.1644 9.26902 97.0306 6.23303 105.182 4.21167C110.223 2.93969 114.313 2.11174 119.495 2.70241C137.183 4.71849 143.087 24.3881 140.662 39.6466C139.979 43.9408 138.857 47.9509 137.246 52.011C134.595 59.5646 131.135 66.4739 125.327 72.1245C123.405 73.9949 121.756 75.6284 119.11 76.4612C111.569 79.26 102.361 79.0445 94.5205 77.872C91.6111 77.441 88.7245 76.8665 85.8713 76.1508C84.96 75.921 83.1601 75.4436 82.2937 75.0561C81.1628 75.0325 80.0931 74.7263 79.0406 74.326C77.9217 74.0042 74.9396 72.7574 73.8613 72.2486C65.8277 68.4621 57.0625 60.6507 54.0838 52.0952C52 46.2262 52.3407 39.768 55.0303 34.1512C58.2221 27.5926 63.8095 23.5121 70.0577 20.077C70.8564 19.638 72.8516 18.5179 73.5732 18.2694Z" fill="#C81616"/>
<path fill-rule="evenodd" clip-rule="evenodd" d="M73.5728 18.2695C72.3585 19.5579 70.4837 20.9456 69.1275 22.166C65.1566 25.681 62.0304 30.0498 59.9849 34.9443C59.1061 36.7199 59.0923 36.5215 57.7447 36.5068C57.5094 40.5595 55.7876 43.9142 55.7886 48.0137C56.4784 48.0195 57.2211 48.0098 57.9038 48.0635C58.1128 48.9299 58.2747 49.9062 58.5015 50.7412C58.8849 52.1531 59.5537 54.1262 60.1734 55.4434C62.2904 59.9425 66.0276 64.2556 69.8531 67.4219C71.5609 68.8348 73.5257 70.1083 75.399 71.2715C75.6952 71.455 77.9955 72.7979 78.0796 72.8828C79.4787 73.5615 80.8694 74.3501 82.2935 75.0566C81.1626 75.0331 80.093 74.7265 79.0406 74.3262C77.9217 74.0043 74.9391 72.7578 73.8609 72.249C65.8274 68.4625 57.0623 60.651 54.0835 52.0957C51.9997 46.2268 52.3402 39.7681 55.0298 34.1514C58.2215 27.5928 63.8091 23.5122 70.0572 20.0771C70.8557 19.6382 72.8509 18.5182 73.5728 18.2695Z" fill="#E9707D"/>
<path fill-rule="evenodd" clip-rule="evenodd" d="M92.0379 18.2571C100.109 16.7561 108.369 16.5594 116.503 17.6751C118.252 17.901 119.82 18.1015 121.555 18.5198C122.967 18.8607 123.868 19.3545 125.196 19.8519C127.042 20.2175 130.597 22.3385 131.663 23.8821C132.107 24.2387 132.514 24.744 132.878 25.1829C134.81 27.517 135.536 30.3169 135.836 33.2884C136.15 36.393 135.915 39.8465 135.364 42.9349C135.159 44.0807 134.612 45.5415 134.299 46.6693C133.984 47.7998 133.648 48.8861 133.206 49.9749C132.996 50.4929 132.645 51.1103 132.41 51.6273C131.351 53.9579 130.132 56.2441 128.592 58.2943C128.116 58.9269 127.701 59.8769 127.18 60.4486C125.383 62.4181 123.982 64.7665 122.099 66.6468C120.269 68.4751 118.232 70.0357 116.168 71.5814C115.734 71.9053 115.203 72.2438 114.797 72.5599C114.213 73.0573 113.776 73.2812 113.013 73.4525C112.486 73.9491 111.958 74.3151 111.244 74.4964L111.179 74.5218C110.938 74.6139 110.657 74.8275 110.379 74.931C109.188 75.3713 106.832 75.9769 105.53 75.932C105.01 75.9705 104.606 75.9941 104.08 75.9905C102.93 76.1332 100.526 75.9156 99.3289 75.6751C98.8825 75.5852 98.2392 75.2872 97.785 75.1859C97.1204 74.9918 96.3027 74.9002 95.6795 74.5941C93.352 73.4501 90.8284 72.6073 88.4852 71.5355C86.07 70.4565 85.0783 69.6467 83.0574 68.0482C80.6008 66.1044 78.1205 64.1788 76.1072 61.7337C75.6052 61.1007 74.8501 60.5137 74.3787 59.8714C72.4196 57.2026 70.094 53.7755 69.1717 50.5706C68.5696 48.4935 68.0287 46.2774 67.8367 44.1273C67.5858 41.3326 67.9972 38.6027 68.907 35.9583C69.0789 35.4004 69.1559 34.744 69.3719 34.2064C69.6578 33.4942 70.091 32.8121 70.4461 32.1302C71.3802 30.4187 72.558 28.5597 73.9705 27.1878C75.167 26.0254 76.5018 24.6628 77.8338 23.6595C78.5169 23.1447 79.802 22.7337 80.5565 22.2884C81.171 21.9261 81.8543 21.5794 82.4881 21.2474C84.6167 20.3688 86.8394 19.4473 89.0457 18.7933C89.8828 18.5452 91.1566 18.4215 92.0379 18.2571Z" fill="#440605"/>
<path d="M71.202 36.5495C71.7858 33.6597 74.3637 27.5314 76.0956 25.7951C80.1458 21.7346 84.6769 20.1227 85.3041 19.885C85.3041 19.885 89.8028 18.2313 95.5075 18.2322C96.5083 18.2322 106.205 18.8158 106.815 18.878C112.12 19.4181 117.055 19.8705 123.505 24.6543C126.13 26.6011 130.945 31.3679 132.271 34.3574C133.406 36.9167 133.173 39.7555 133.149 40.5589C133.119 41.5864 131.757 47.1054 130.805 49.1059C129.565 51.7095 126.28 56.5155 124.385 58.688C116.958 67.2009 102.719 70.9632 101.674 71.1344C101.023 71.2409 100.558 71.252 99.8905 71.269C95.1339 71.39 91.996 70.2688 85.8096 65.7363C82.4641 63.2852 75.5551 53.5165 75.2215 52.9585C71.0862 46.0379 70.3645 40.6901 71.2011 36.5504L71.202 36.5495Z" fill="#2B0403"/>
<path d="M9.04248 60.8457V54.8584H9.87747V60.8457H9.04248ZM5.02124 60.8457V54.8584H5.85623V60.8457H5.02124ZM5.77273 58.1771V57.433H9.11763V58.1771H5.77273Z" fill="white"/>
<path d="M18.2357 60.9226C17.7593 60.9226 17.3157 60.8454 16.9048 60.691C16.4999 60.5366 16.1486 60.3222 15.8508 60.0478C15.5531 59.7676 15.3209 59.4417 15.1541 59.07C14.9874 58.6984 14.9041 58.2924 14.9041 57.8522C14.9041 57.4119 14.9874 57.0059 15.1541 56.6343C15.3209 56.2626 15.5531 55.9396 15.8508 55.6651C16.1486 55.385 16.4999 55.1677 16.9048 55.0133C17.3097 54.8589 17.7533 54.7817 18.2357 54.7817C18.712 54.7817 19.1497 54.8589 19.5487 55.0133C19.9536 55.162 20.3049 55.3764 20.6026 55.6566C20.9063 55.931 21.1386 56.2541 21.2993 56.6257C21.4661 56.9974 21.5494 57.4062 21.5494 57.8522C21.5494 58.2981 21.4661 58.707 21.2993 59.0786C21.1386 59.4503 20.9063 59.7762 20.6026 60.0564C20.3049 60.3308 19.9536 60.5452 19.5487 60.6996C19.1497 60.8483 18.712 60.9226 18.2357 60.9226ZM18.2357 60.1593C18.581 60.1593 18.8996 60.1021 19.1914 59.9877C19.4891 59.8734 19.7452 59.7133 19.9595 59.5074C20.1799 59.2959 20.3496 59.05 20.4687 58.7699C20.5937 58.4897 20.6562 58.1838 20.6562 57.8522C20.6562 57.5205 20.5937 57.2146 20.4687 56.9345C20.3496 56.6543 20.1799 56.4113 19.9595 56.2055C19.7452 55.9939 19.4891 55.8309 19.1914 55.7166C18.8996 55.6022 18.581 55.5451 18.2357 55.5451C17.8843 55.5451 17.5598 55.6022 17.2621 55.7166C16.9703 55.8309 16.7143 55.9939 16.4939 56.2055C16.2736 56.4113 16.1009 56.6543 15.9759 56.9345C15.8568 57.2146 15.7972 57.5205 15.7972 57.8522C15.7972 58.1838 15.8568 58.4897 15.9759 58.7699C16.1009 59.05 16.2736 59.2959 16.4939 59.5074C16.7143 59.7133 16.9703 59.8734 17.2621 59.9877C17.5598 60.1021 17.8843 60.1593 18.2357 60.1593Z" fill="white"/>
<path d="M28.1098 60.8643V55.6048H25.8243V54.8584H31.338V55.6048H29.0526V60.8643H28.1098Z" fill="white"/>
<path d="M35.8785 60.8643V54.8584H40.5828V55.6048H36.8308V60.1178H40.7161V60.8643H35.8785ZM36.7451 58.1788V57.4495H40.1733V58.1788H36.7451Z" fill="white"/>
<path d="M46.001 60.8643V54.8584H46.9533V60.1178H50.5624V60.8643H46.001Z" fill="white"/>
<path d="M8.53544 48.4721C7.52544 48.4721 6.58403 48.31 5.71119 47.9858C4.85083 47.6491 4.10269 47.1753 3.46676 46.5643C2.83084 45.9533 2.33208 45.2363 1.97048 44.4134C1.62134 43.5904 1.44678 42.6864 1.44678 41.7014C1.44678 40.7163 1.62134 39.8123 1.97048 38.9893C2.33208 38.1664 2.83084 37.4494 3.46676 36.8384C4.11516 36.2274 4.86953 35.7599 5.7299 35.4357C6.59026 35.099 7.53168 34.9307 8.55414 34.9307C9.68882 34.9307 10.7113 35.1302 11.6215 35.5292C12.5442 35.9157 13.3173 36.4893 13.9408 37.2499L11.9956 39.0455C11.5467 38.5342 11.0479 38.1539 10.4993 37.9045C9.95067 37.6427 9.35216 37.5118 8.70377 37.5118C8.09278 37.5118 7.53168 37.6115 7.02044 37.811C6.50921 38.0105 6.06656 38.2973 5.69249 38.6714C5.31842 39.0455 5.0254 39.4881 4.81342 39.9993C4.61392 40.5106 4.51416 41.0779 4.51416 41.7014C4.51416 42.3248 4.61392 42.8922 4.81342 43.4034C5.0254 43.9146 5.31842 44.3573 5.69249 44.7313C6.06656 45.1054 6.50921 45.3922 7.02044 45.5917C7.53168 45.7912 8.09278 45.891 8.70377 45.891C9.35216 45.891 9.95067 45.7663 10.4993 45.5169C11.0479 45.255 11.5467 44.8623 11.9956 44.3386L13.9408 46.1341C13.3173 46.8947 12.5442 47.4745 11.6215 47.8735C10.7113 48.2726 9.68259 48.4721 8.53544 48.4721Z" fill="white"/>
<path d="M15.8043 48.2788V35.1863H25.6985V37.6177H18.8156V45.8473H25.9417V48.2788H15.8043ZM18.5912 42.8173V40.4607H24.8943V42.8173H18.5912Z" fill="white"/>
<path d="M28.3525 48.2788V35.1863H30.8588L38.5834 44.6129H37.3677V35.1863H40.3602V48.2788H37.8727L30.1294 38.8522H31.3451V48.2788H28.3525Z" fill="white"/>
<path d="M46.1698 48.2788V37.6552H41.9802V35.1863H53.3894V37.6552H49.1998V48.2788H46.1698Z" fill="white"/>
<path d="M55.0197 48.2788V35.1863H60.612C62.4325 35.1863 63.8477 35.6102 64.8577 36.4581C65.8677 37.2936 66.3727 38.4532 66.3727 39.937C66.3727 40.9096 66.142 41.7512 65.6807 42.462C65.2193 43.1602 64.5647 43.6964 63.7168 44.0705C62.8689 44.4446 61.8589 44.6316 60.6868 44.6316H56.703L58.0496 43.3036V48.2788H55.0197ZM63.3427 48.2788L60.0696 43.5281H63.3053L66.6159 48.2788H63.3427ZM58.0496 43.6403L56.703 42.2188H60.5185C61.4537 42.2188 62.152 42.0193 62.6133 41.6203C63.0747 41.2088 63.3053 40.6477 63.3053 39.937C63.3053 39.2138 63.0747 38.6527 62.6133 38.2537C62.152 37.8547 61.4537 37.6552 60.5185 37.6552H56.703L58.0496 36.215V43.6403Z" fill="white"/>
<path d="M67.0526 48.2788L72.8881 35.1863H75.8807L81.7349 48.2788H78.5553L73.7672 36.72H74.9642L70.1574 48.2788H67.0526ZM69.9704 45.4733L70.7746 43.1727H77.5079L78.3309 45.4733H69.9704Z" fill="white"/>
<path d="M88.3142 46.9761C88.3836 46.6682 88.7961 46.5631 88.9584 46.3587L91.8506 44.3081L95.8253 41.4655L102.192 36.9126C103.066 36.2879 103.915 35.7383 104.706 35.0246C105.496 34.3109 105.673 32.8609 104.705 32.1391C104.185 31.752 103.615 31.7164 102.995 31.7148C101.68 31.7116 100.563 32.3363 99.9962 33.5463L99.2786 35.3721L96.6471 34.8953L91.6246 34.1686L89.3353 33.7669L89.7833 32.7122C90.526 30.9639 91.3978 29.3086 92.5715 27.7916C93.6362 26.4151 94.9592 25.2916 96.4477 24.4236C97.5092 23.8037 98.5909 23.4246 99.7428 23.0374L101.297 22.7497C102.938 22.6301 104.532 22.6341 106.166 22.757C107.774 22.8774 109.319 23.2193 110.768 23.8885C112.117 24.5109 113.371 25.1914 114.341 26.3327C117.15 29.6344 117.057 34.7457 114.442 38.2075C113.247 39.79 109.349 42.5704 107.451 43.8717L104.948 45.5884C104.706 45.7541 104.534 46.0305 104.195 46.1C104.32 46.3481 104.44 46.1833 104.56 46.1833L114.897 46.1962L114.419 49.1592C114.088 51.2073 113.803 53.2223 113.327 55.2389C113.226 55.3731 112.956 55.2146 112.82 55.2146L97.6319 55.1758C97.426 55.1758 97.2404 55.4215 97.0507 55.1419L87.0638 55.0667L88.315 46.9745L88.3142 46.9761Z" fill="#FDFDFD"/>
</svg>
