<svg width="168" height="101" viewBox="0 0 168 101" fill="none" xmlns="http://www.w3.org/2000/svg">
<rect y="0.541992" width="168" height="99.9158" rx="13.2632" fill="#231F20"/>
<g clip-path="url(#clip0_8035_732)">
<path d="M61.0686 43.978C59.2536 38.1269 58.2714 31.9696 58.1753 25.7446C66.154 20.7732 74.9084 18.1486 83.5561 18.1486C92.2038 18.1486 100.958 20.7732 108.937 25.7446C108.841 31.9696 107.859 38.1269 106.044 43.978H107.663C109.499 37.8705 110.474 31.3891 110.474 24.7511C102.147 19.3666 92.8515 16.4321 83.5525 16.4321C74.2536 16.4321 64.9618 19.363 56.6309 24.7511C56.6309 31.3891 57.6095 37.8705 59.4422 43.978H61.0615H61.0686Z" fill="#D5B170"/>
<path d="M88.8374 37.7314L94.1185 40.0141V34.7934C94.1185 34.7934 93.2716 31.7272 91.478 31.5954C89.6844 31.4637 88.8374 33.0947 88.8374 33.8781V37.7278V37.7314Z" fill="#D5B170"/>
<path d="M86.9229 24.7936L89.9086 25.9688V21.4639L86.9229 24.7936Z" fill="#D5B170"/>
<path d="M93.0366 27.5358L96.0188 28.711V24.2061L93.0366 27.5358Z" fill="#D5B170"/>
<path d="M83.5384 9.57658C83.4494 9.23471 82.7875 9.35223 81.6487 9.90065C80.4245 10.4883 79.5953 12.4932 79.154 12.7888C78.7128 13.0808 78.7128 12.5929 78.2751 11.9555C77.8338 11.318 77.4921 11.9555 77.4921 11.9555C77.4921 11.9555 76.4174 13.3265 75.4886 14.2702C74.5598 15.214 72.9939 14.9397 72.9939 14.9397C74.1185 15.6733 75.243 15.2816 75.7804 14.8899C76.3178 14.4982 77.0509 14.0103 77.6879 14.2702C78.3249 14.5302 78.5206 15.1356 79.2537 15.4668C79.9868 15.798 80.0864 15.1855 81.211 15.3813C81.6345 15.4561 82.0722 15.4739 82.453 15.4668V19.4233L80.7234 20.0785V25.5592L77.2003 27.0264V21.446L73.9726 22.9133V28.7857L70.3533 30.1567V23.9887L67.2217 25.5557V43.2726H83.5562V9.57658H83.5384ZM77.9299 39.1238L72.6487 41.4065V36.1858C72.6487 36.1858 73.4957 33.1196 75.2893 32.9879C77.0829 32.8561 77.9299 34.4871 77.9299 35.2706V39.1202V39.1238Z" fill="#D5B170"/>
<path d="M52.2324 43.7675C57.4531 43.4791 62.6737 43.3295 67.8943 43.2298C70.5064 43.1657 73.115 43.1514 75.7271 43.1158L83.5598 43.0767L91.3925 43.1123C94.0046 43.1514 96.6132 43.1621 99.2253 43.2262C104.446 43.3295 109.667 43.4791 114.887 43.7675C109.667 44.056 104.446 44.2056 99.2253 44.3088C96.6132 44.3729 94.0046 44.3872 91.3925 44.4264L83.5598 44.462L75.7271 44.4228C73.1185 44.3836 70.5064 44.3694 67.8943 44.3088C62.6737 44.2056 57.4531 44.056 52.2324 43.7711" fill="#D7B271"/>
<path d="M42.2822 76.2066C49.1612 75.9039 56.0402 75.7472 62.9192 75.6368C66.3569 75.5692 69.7982 75.5549 73.2395 75.5157L83.5598 75.4766L93.88 75.5157C97.3213 75.5585 100.759 75.5692 104.2 75.6368C111.079 75.7437 117.958 75.9039 124.837 76.2066C117.958 76.5093 111.079 76.6696 104.2 76.7764C100.763 76.8441 97.3213 76.8583 93.88 76.8975L83.5598 76.9367L73.2395 76.8975C69.7982 76.8583 66.3605 76.8441 62.9192 76.7764C56.0402 76.6696 49.1612 76.5093 42.2822 76.2066Z" fill="#D7B271"/>
<path d="M58.1357 91.8046V83.1616H58.1464L62.5343 89.3937L62.061 89.3011L66.4382 83.1616H66.4631V91.8046H65.3528V85.7114L65.424 86.2777L62.2639 90.7505H62.2425L59.0361 86.2777L59.2318 85.7577V91.8046H58.1429H58.1357Z" fill="#D5B170"/>
<path d="M71.1289 87.624C71.1289 87.0435 71.2392 86.4986 71.4599 85.9858C71.6805 85.473 71.9866 85.0172 72.3816 84.6183C72.7766 84.2195 73.2285 83.9061 73.741 83.6817C74.2535 83.4574 74.8086 83.3398 75.4029 83.3398C75.9972 83.3398 76.5382 83.4538 77.0542 83.6817C77.5666 83.9096 78.0221 84.223 78.4207 84.6183C78.8193 85.0172 79.1289 85.473 79.3531 85.9858C79.5773 86.4986 79.6876 87.047 79.6876 87.624C79.6876 88.2009 79.5773 88.7742 79.3531 89.2906C79.1289 89.807 78.8193 90.2628 78.4207 90.651C78.0221 91.0427 77.5666 91.3454 77.0542 91.5662C76.5417 91.787 75.9901 91.8974 75.4029 91.8974C74.8157 91.8974 74.2535 91.7906 73.741 91.5733C73.2285 91.3561 72.773 91.0569 72.3816 90.6688C71.9866 90.2842 71.6805 89.8319 71.4599 89.312C71.2392 88.792 71.1289 88.2294 71.1289 87.6204V87.624ZM72.2855 87.6346C72.2855 88.0762 72.3673 88.4858 72.5275 88.8668C72.6912 89.2479 72.9118 89.5862 73.2001 89.8818C73.4883 90.1773 73.8193 90.4053 74.1965 90.5726C74.5737 90.74 74.983 90.8219 75.4243 90.8219C75.8656 90.8219 76.2606 90.74 76.6414 90.5726C77.0221 90.4053 77.346 90.1773 77.6271 89.8818C77.9047 89.5897 78.1253 89.2514 78.2855 88.8668C78.4492 88.4858 78.5275 88.0691 78.5275 87.6204C78.5275 87.1717 78.4456 86.7657 78.2855 86.374C78.1218 85.9858 77.9011 85.6439 77.6129 85.3484C77.3282 85.0563 76.9937 84.8249 76.6164 84.6575C76.2392 84.4901 75.8335 84.4082 75.3994 84.4082C74.9652 84.4082 74.5488 84.4937 74.1716 84.6646C73.7944 84.8355 73.4599 85.067 73.1752 85.359C72.8905 85.6546 72.6698 85.9965 72.5168 86.3847C72.3638 86.7764 72.2855 87.1895 72.2855 87.6311V87.6346Z" fill="#D5B170"/>
<path d="M83.7373 83.4287H89.296V84.5078H87.0505V91.8082H85.9259V84.5078H83.7373V83.4287Z" fill="#D5B170"/>
<path d="M93.855 83.4287H99.2963V84.5078H94.9795V87.0576H98.8336V88.1366H94.9795V90.7327H99.46V91.8118H93.855V83.4358V83.4287Z" fill="#D5B170"/>
<path d="M104.186 83.4287H105.31V90.7292H109.559V91.8082H104.186V83.4323V83.4287Z" fill="#D5B170"/>
<path d="M111.705 67.4137L107.314 53.8242H110.374L113.399 63.3789H113.439L116.499 53.8242H119.581L115.072 67.4137H111.705Z" fill="#D5AE74"/>
<path d="M124.108 53.8242H121.122V67.4137H124.108V53.8242Z" fill="#D5AE74"/>
<path d="M133.239 53.8244C134.09 53.8244 134.812 53.949 135.407 54.1947C136.001 54.444 136.488 54.7681 136.862 55.1741C137.236 55.58 137.51 56.043 137.681 56.5629C137.851 57.0829 137.937 57.6242 137.937 58.1797C137.937 58.7352 137.851 59.2623 137.681 59.7894C137.51 60.3164 137.236 60.7829 136.862 61.1889C136.488 61.5949 136.004 61.9225 135.407 62.1682C134.809 62.4175 134.086 62.5386 133.239 62.5386H130.101V67.4103H127.115V53.8208H133.239V53.8244ZM132.421 60.2203C132.762 60.2203 133.093 60.1953 133.41 60.1455C133.727 60.0956 134.008 59.9959 134.246 59.8499C134.488 59.7039 134.681 59.4973 134.826 59.2303C134.972 58.9632 135.047 58.6142 135.047 58.1833C135.047 57.7524 134.972 57.4034 134.826 57.1363C134.681 56.8692 134.488 56.6626 134.246 56.5166C134.004 56.3706 133.727 56.2709 133.41 56.221C133.093 56.1712 132.762 56.1463 132.421 56.1463H130.101V60.2203H132.421Z" fill="#D5AE74"/>
<path d="M38.0186 56.0862C37.3282 55.6054 36.5132 55.3668 35.563 55.3668C34.7552 55.3668 34.0613 55.52 33.4883 55.8227C32.9118 56.1254 32.4385 56.5349 32.0648 57.0441C31.6912 57.557 31.4171 58.141 31.2392 58.7998C31.0613 59.4586 30.9759 60.1388 30.9759 60.8475C30.9759 61.6203 31.0648 62.3503 31.2392 63.0376C31.4171 63.7249 31.6912 64.3268 32.0648 64.8396C32.4385 65.3524 32.9154 65.7584 33.4954 66.0611C34.0755 66.3638 34.773 66.5169 35.5808 66.5169C36.1751 66.5169 36.7018 66.4208 37.1645 66.2213C37.6235 66.0255 38.0221 65.7548 38.3566 65.4058C38.6912 65.0568 38.9545 64.6437 39.1431 64.163C39.3317 63.6822 39.4456 63.1658 39.4847 62.6067H41.2855C41.1075 64.3125 40.5203 65.6409 39.5239 66.5881C38.5275 67.5354 37.1609 68.0091 35.4314 68.0091C34.3816 68.0091 33.467 67.831 32.684 67.4678C31.9011 67.1081 31.2499 66.6131 30.7339 65.9792C30.2143 65.3453 29.8264 64.601 29.5666 63.7427C29.3068 62.8845 29.1787 61.9621 29.1787 60.9757C29.1787 59.9892 29.3175 59.0633 29.5951 58.198C29.8727 57.3326 30.2819 56.5776 30.8193 55.9331C31.3566 55.2885 32.0257 54.7792 32.8264 54.4053C33.6271 54.0314 34.5488 53.8462 35.5844 53.8462C36.2926 53.8462 36.9616 53.9423 37.5915 54.1311C38.2214 54.3198 38.7837 54.5976 39.2783 54.9644C39.773 55.3312 40.1823 55.7906 40.5097 56.339C40.8371 56.8875 41.0541 57.5249 41.1538 58.2443H39.3531C39.1502 57.2827 38.7054 56.5634 38.0186 56.0826" fill="#D5AE74"/>
<path d="M49.5673 54.1733L54.8519 67.713H52.8626L51.3858 63.6354H45.6633L44.1473 67.713H42.311L47.5779 54.1733H49.5673ZM50.8199 62.1184L48.5637 55.8044H48.5246L46.2327 62.1184H50.8199Z" fill="#D5AE74"/>
<path d="M63.3355 56.0219C62.7341 55.5839 61.9689 55.3667 61.033 55.3667C60.6558 55.3667 60.2821 55.4059 59.9156 55.4806C59.549 55.5554 59.2252 55.6836 58.9405 55.8581C58.6558 56.0362 58.428 56.2712 58.2572 56.5704C58.0864 56.8659 58.001 57.2363 58.001 57.6779C58.001 58.0946 58.1255 58.4329 58.3711 58.6928C58.6166 58.9528 58.944 59.1629 59.3568 59.3267C59.7661 59.4905 60.2323 59.6259 60.7483 59.7327C61.2679 59.8395 61.7946 59.9571 62.3319 60.0853C62.8693 60.2099 63.396 60.3595 63.9156 60.5304C64.4316 60.7013 64.8978 60.9328 65.307 61.2213C65.7163 61.5133 66.0472 61.8801 66.2928 62.3217C66.5383 62.7633 66.6629 63.3188 66.6629 63.9919C66.6629 64.7112 66.5027 65.3273 66.1789 65.8401C65.8551 66.353 65.4423 66.7696 64.9369 67.0901C64.4316 67.4142 63.8657 67.6457 63.243 67.7917C62.6166 67.9377 61.9939 68.0089 61.3782 68.0089C60.6202 68.0089 59.9049 67.9163 59.2287 67.724C58.5526 67.5353 57.9583 67.2468 57.4494 66.8622C56.9369 66.4776 56.5348 65.9826 56.2359 65.3843C55.9405 64.7825 55.791 64.0738 55.791 63.2512H57.4956C57.4956 63.8209 57.606 64.3088 57.8266 64.7219C58.0472 65.1315 58.3391 65.4698 58.6985 65.7369C59.0579 66.0004 59.4778 66.1998 59.9583 66.3245C60.4387 66.4527 60.9298 66.5132 61.4351 66.5132C61.8408 66.5132 62.2465 66.474 62.6558 66.3993C63.065 66.3245 63.4351 66.1927 63.7661 66.0111C64.0935 65.8295 64.3604 65.5766 64.5632 65.2632C64.7661 64.9463 64.8657 64.5439 64.8657 64.0489C64.8657 63.5823 64.7412 63.2013 64.4956 62.9128C64.2501 62.6208 63.9191 62.3858 63.5099 62.2006C63.1006 62.019 62.6344 61.8694 62.1184 61.7555C61.5988 61.6415 61.0721 61.524 60.5348 61.4065C59.9974 61.2854 59.4707 61.1465 58.9512 60.9898C58.4316 60.8331 57.9689 60.623 57.5597 60.363C57.1504 60.1031 56.8195 59.7683 56.5739 59.3588C56.3284 58.9492 56.2038 58.4329 56.2038 57.8132C56.2038 57.1295 56.3426 56.5419 56.6202 56.0397C56.8978 55.5412 57.2679 55.1281 57.727 54.8076C58.186 54.4871 58.7127 54.2449 59.2999 54.0882C59.8871 53.9315 60.4921 53.8496 61.1113 53.8496C61.8052 53.8496 62.4494 53.9315 63.0437 54.0953C63.638 54.2591 64.1576 54.5191 64.606 54.8717C65.0544 55.2242 65.4067 55.6729 65.6664 56.2071C65.9262 56.7449 66.0686 57.3859 66.0935 58.1302H64.3889C64.2892 57.158 63.9369 56.4528 63.339 56.0148" fill="#D5AE74"/>
<path d="M67.7769 55.6868V54.1733H78.5989V55.6868H74.0865V67.7094H72.2893V55.6868H67.7769Z" fill="#D5AE74"/>
<path d="M82.2718 54.1733V66.1924H89.4355V67.7094H80.4746V54.1733H82.2718Z" fill="#D5AE74"/>
<path d="M100.73 54.1733V55.6868H93.1894V59.9923H100.218V61.5094H93.1894V66.1924H100.787V67.7094H91.3887V54.1733H100.73Z" fill="#D5AE74"/>
</g>
<defs>
<clipPath id="clip0_8035_732">
<rect width="108.758" height="82.5128" fill="white" transform="translate(29.1787 9.38428)"/>
</clipPath>
</defs>
</svg>
