<svg width="58" height="95" viewBox="0 0 58 95" fill="none" xmlns="http://www.w3.org/2000/svg">
<g clip-path="url(#clip0_8006_588)">
<path d="M8.61436 78.234L0.701172 53.6025H6.21571L11.6614 70.9214H11.7302L17.2448 53.6025H22.7926L14.6751 78.234H8.61436Z" fill="#CBA052"/>
<path d="M30.9432 53.6025H25.5664V78.234H30.9432V53.6025Z" fill="#CBA052"/>
<path d="M47.3841 53.6025C48.9136 53.6025 50.215 53.8274 51.2885 54.2747C52.3619 54.7244 53.2335 55.3153 53.908 56.0521C54.5825 56.7888 55.0717 57.6284 55.3804 58.5709C55.6892 59.5134 55.8435 60.4918 55.8435 61.5037C55.8435 62.5155 55.6892 63.4652 55.3804 64.4196C55.0717 65.3741 54.5801 66.2185 53.908 66.9553C53.2335 67.692 52.3596 68.2829 51.2885 68.7326C50.215 69.1823 48.9136 69.4048 47.3841 69.4048H41.7342V78.2364H36.3574V53.6049H47.3865L47.3841 53.6025ZM45.9117 65.1947C46.5268 65.1947 47.1205 65.1492 47.6929 65.0559C48.2628 64.965 48.7663 64.7856 49.2009 64.5201C49.6332 64.257 49.9823 63.8814 50.2459 63.3982C50.5095 62.915 50.6401 62.2835 50.6401 61.5013C50.6401 60.719 50.5095 60.0875 50.2459 59.6043C49.9846 59.1211 49.6355 58.748 49.2009 58.4824C48.7663 58.2193 48.2628 58.0399 47.6929 57.9466C47.1229 57.8557 46.5292 57.8079 45.9117 57.8079H41.7318V65.1899H45.9117V65.1947Z" fill="#CBA052"/>
<path d="M6.83534 39.5842C6.30336 39.2111 5.66926 39.0245 4.93779 39.0245C4.31319 39.0245 3.77646 39.1417 3.33235 39.3785C2.88824 39.6153 2.52251 39.9311 2.23277 40.3306C1.94541 40.73 1.73166 41.1845 1.59629 41.6965C1.46092 42.2084 1.39205 42.7394 1.39205 43.2896C1.39205 43.89 1.46092 44.4569 1.59629 44.9928C1.73404 45.5286 1.94541 45.9975 2.23277 46.3945C2.52013 46.794 2.89062 47.1098 3.33948 47.3466C3.78833 47.5834 4.32506 47.7006 4.95204 47.7006C5.4104 47.7006 5.81888 47.6241 6.17512 47.471C6.53135 47.3179 6.84009 47.1074 7.09658 46.8371C7.35545 46.5668 7.55969 46.2438 7.70456 45.8707C7.8518 45.4975 7.93967 45.0932 7.96817 44.6603H9.35987C9.22212 45.9879 8.76852 47.0213 7.99667 47.7604C7.22483 48.4972 6.17037 48.868 4.83092 48.868C4.02107 48.868 3.31335 48.7292 2.70775 48.447C2.10215 48.1671 1.59867 47.7796 1.19731 47.2892C0.795949 46.7964 0.496711 46.2175 0.297219 45.5477C0.0977265 44.878 -0.00439453 44.1603 -0.00439453 43.3925C-0.00439453 42.6246 0.102476 41.9046 0.318593 41.23C0.532335 40.5554 0.848197 39.9694 1.26381 39.467C1.67704 38.9647 2.19715 38.57 2.817 38.2781C3.43685 37.9887 4.14694 37.8428 4.94966 37.8428C5.49589 37.8428 6.01362 37.9169 6.50285 38.0652C6.99208 38.2136 7.42669 38.4288 7.80668 38.7135C8.18904 38.9982 8.5049 39.3546 8.75902 39.7828C9.01313 40.211 9.17937 40.7061 9.25775 41.2659H7.86605C7.70931 40.5171 7.36495 39.9574 6.83297 39.5842" fill="#CBA052"/>
<path d="M15.7672 38.0947L19.8544 48.6319H18.3155L17.1731 45.4576H12.7487L11.5755 48.6319H10.1553L14.2282 38.0947H15.7672ZM16.7338 44.2783L14.9906 39.3649H14.9621L13.188 44.2783H16.7338Z" fill="#CBA052"/>
<path d="M26.4116 39.5341C25.9485 39.1944 25.3548 39.0246 24.6304 39.0246C24.3383 39.0246 24.0486 39.0533 23.766 39.1131C23.4833 39.1729 23.2316 39.271 23.0107 39.4073C22.7922 39.5461 22.6165 39.7302 22.4835 39.9623C22.3505 40.1943 22.2864 40.4814 22.2864 40.8258C22.2864 41.1512 22.3814 41.4143 22.5714 41.6152C22.7614 41.8162 23.0155 41.9812 23.3337 42.1104C23.652 42.2396 24.0106 42.3448 24.4096 42.4285C24.8109 42.5123 25.217 42.6032 25.6326 42.7012C26.0482 42.7993 26.4544 42.9141 26.8557 43.0481C27.2547 43.182 27.6157 43.3615 27.9316 43.5863C28.2498 43.8136 28.5039 44.0982 28.6939 44.4427C28.8839 44.7871 28.9789 45.2201 28.9789 45.7416C28.9789 46.3013 28.853 46.7822 28.606 47.1816C28.3567 47.5811 28.036 47.9041 27.6466 48.1552C27.2571 48.4064 26.8201 48.5882 26.3356 48.7006C25.8535 48.8131 25.3714 48.8705 24.8917 48.8705C24.3051 48.8705 23.7517 48.7963 23.2292 48.6504C22.7068 48.5021 22.2484 48.2796 21.8518 47.9782C21.4552 47.6792 21.1441 47.2941 20.9137 46.8276C20.6833 46.3612 20.5693 45.8062 20.5693 45.1675H21.8874C21.8874 45.61 21.9729 45.9904 22.1439 46.3109C22.3149 46.6315 22.5405 46.8946 22.8184 47.1003C23.0962 47.306 23.4216 47.4591 23.7921 47.5572C24.1626 47.6553 24.5449 47.7055 24.9344 47.7055C25.2479 47.7055 25.5614 47.6768 25.8796 47.617C26.1979 47.5572 26.4829 47.4567 26.737 47.3156C26.9911 47.1721 27.1953 46.9783 27.3521 46.7319C27.5088 46.4855 27.5872 46.1698 27.5872 45.787C27.5872 45.4234 27.4922 45.1292 27.3022 44.902C27.1122 44.6747 26.8581 44.4905 26.5399 44.3494C26.2216 44.2059 25.863 44.091 25.4616 44.0025C25.0603 43.914 24.6542 43.8231 24.2386 43.7298C23.823 43.6365 23.4145 43.5289 23.0155 43.4045C22.6141 43.2801 22.2555 43.1199 21.9373 42.9165C21.619 42.7156 21.3649 42.4548 21.1749 42.1343C20.9849 41.8138 20.8899 41.4143 20.8899 40.9311C20.8899 40.4 20.9968 39.9407 21.2129 39.5508C21.4267 39.1633 21.714 38.8428 22.0703 38.5916C22.4265 38.3404 22.8326 38.1538 23.2862 38.0318C23.7398 37.9075 24.2077 37.8477 24.6851 37.8477C25.2218 37.8477 25.7205 37.9122 26.1789 38.039C26.6372 38.1682 27.041 38.3691 27.3877 38.6442C27.7344 38.9193 28.0075 39.2662 28.207 39.6848C28.4065 40.1034 28.5182 40.601 28.5372 41.1822H27.2191C27.1407 40.424 26.87 39.8762 26.4069 39.5365" fill="#CBA052"/>
<path d="M29.8457 39.2764V38.0947H38.2125V39.2764H34.7261V48.6319H33.3344V39.2764H29.8457Z" fill="#CBA052"/>
<path d="M41.0553 38.0947V47.4526H46.5936V48.6319H39.6636V38.0947H41.0553Z" fill="#CBA052"/>
<path d="M55.3261 38.0947V39.2764H49.4957V42.6254H54.9319V43.8071H49.4957V47.4526H55.3712V48.6319H48.104V38.0947H55.3261Z" fill="#CBA052"/>
<path d="M1.49658 83.4485C6.09915 83.1901 10.7017 83.0538 15.3043 82.9605C17.6056 82.9031 19.9069 82.8911 22.2082 82.8552L29.112 82.8193L36.0159 82.8528C38.3171 82.8887 40.6184 82.8983 42.9197 82.9581C47.5223 83.049 52.1249 83.1877 56.7274 83.4485C52.1249 83.7092 47.5223 83.8456 42.9197 83.9365C40.6184 83.9939 38.3171 84.0058 36.0159 84.0417L29.112 84.0752L22.2082 84.0393C19.9069 84.0058 17.6056 83.9915 15.3043 83.9341C10.7017 83.8408 6.09915 83.7068 1.49658 83.4461" fill="#CBA052"/>
<path d="M8.37433 32.1112C6.70239 26.6811 5.79518 20.964 5.7073 15.1871C13.0648 10.5703 21.1395 8.13513 29.112 8.13513C37.0846 8.13513 45.1593 10.5703 52.5167 15.1871C52.4289 20.964 51.5216 26.6811 49.8497 32.1112H51.3435C53.0368 26.4419 53.9369 20.4258 53.9369 14.2637C46.2565 9.26421 37.6831 6.54199 29.112 6.54199C20.541 6.54199 11.9676 9.26421 4.28711 14.2613C4.28711 20.4234 5.1872 26.4395 6.88051 32.1088H8.37433V32.1112Z" fill="#CBA052"/>
<path d="M33.9804 26.31L38.8513 28.4294V23.583C38.8513 23.583 38.07 20.7364 36.4147 20.6144C34.7617 20.4924 33.978 22.0066 33.978 22.7338V26.3076L33.9804 26.31Z" fill="#CBA052"/>
<path d="M32.2158 14.3021L34.966 15.3929V11.2139L32.2158 14.3021Z" fill="#CBA052"/>
<path d="M37.854 16.8474L40.6041 17.9382V13.7568L37.854 16.8474Z" fill="#CBA052"/>
<path d="M29.0955 0.176894C29.0147 -0.138864 28.402 -0.0312191 27.3523 0.475907C26.2242 1.02131 25.4571 2.88475 25.0534 3.15506C24.6473 3.42776 24.6473 2.97326 24.2412 2.38241C23.835 1.79156 23.5192 2.38241 23.5192 2.38241C23.5192 2.38241 22.5265 3.65501 21.6691 4.53052C20.8118 5.40842 19.3702 5.15247 19.3702 5.15247C20.4081 5.83422 21.4459 5.47062 21.9422 5.10702C22.4386 4.74342 23.1154 4.28892 23.7021 4.53052C24.2887 4.77212 24.4691 5.33427 25.146 5.64285C25.8228 5.95143 25.9131 5.37972 26.9509 5.56152C27.3404 5.63089 27.7441 5.64763 28.0956 5.64046V9.31234L26.4997 9.92232V15.0103L23.2532 16.3738V11.1949L20.2774 12.5584V18.01L16.9407 19.2826V13.5583L14.0552 15.0127V31.4584H29.1192V0.176894H29.1026H29.0955ZM23.9205 27.6048L19.0496 29.7242V24.8778C19.0496 24.8778 19.831 22.0311 21.4863 21.9092C23.1392 21.7872 23.9229 23.3014 23.9229 24.0286V27.6024L23.9205 27.6048Z" fill="#CBA052"/>
<path d="M0.223633 31.913C5.03757 31.6475 9.85388 31.5064 14.6678 31.4131C17.076 31.3533 19.4818 31.3413 21.8899 31.3054L29.112 31.2695L36.3341 31.303C38.7423 31.3389 41.148 31.3509 43.5562 31.4107C48.3701 31.504 53.1865 31.6451 58.0004 31.913C53.1865 32.1809 48.3701 32.3221 43.5562 32.4153C41.148 32.4751 38.7423 32.4871 36.3341 32.523L29.112 32.5565L21.8899 32.5206C19.4818 32.4847 17.076 32.4728 14.6678 32.413C9.85388 32.3173 5.03757 32.1785 0.223633 31.913Z" fill="#CBA052"/>
<path d="M5.38909 94.916V87.168H5.39859L9.30532 92.7559L8.88258 92.6722L12.7798 87.168H12.8012V94.916H11.8108V89.4524L11.8726 89.9619L9.05833 93.9711H9.03695L6.17994 89.9619L6.35568 89.4955V94.916H5.38672H5.38909Z" fill="#CBA052"/>
<path d="M16.9575 91.165C16.9575 90.6459 17.0549 90.1555 17.252 89.6962C17.4491 89.2369 17.7222 88.8279 18.0713 88.4715C18.4228 88.115 18.8266 87.8352 19.2826 87.6294C19.7385 87.4261 20.2325 87.3232 20.7621 87.3232C21.2917 87.3232 21.7738 87.4261 22.2322 87.6294C22.6882 87.8328 23.0943 88.115 23.4481 88.4715C23.802 88.8279 24.0799 89.2369 24.2794 89.6962C24.4789 90.1555 24.5786 90.6459 24.5786 91.165C24.5786 91.684 24.4789 92.196 24.2794 92.66C24.0799 93.1241 23.8044 93.5308 23.4481 93.88C23.0943 94.2292 22.6882 94.502 22.2322 94.7005C21.7762 94.8966 21.2846 94.9971 20.7621 94.9971C20.2396 94.9971 19.7385 94.899 19.2826 94.7053C18.8242 94.5115 18.4228 94.2412 18.0713 93.8944C17.7199 93.5475 17.4468 93.1432 17.252 92.6792C17.0549 92.2151 16.9575 91.7104 16.9575 91.1626V91.165ZM17.9882 91.1769C17.9882 91.5716 18.0595 91.94 18.2043 92.2821C18.3492 92.6241 18.5487 92.9279 18.8028 93.1911C19.0569 93.4542 19.3514 93.6599 19.6887 93.8082C20.0259 93.9565 20.3893 94.0307 20.7811 94.0307C21.173 94.0307 21.5268 93.9565 21.8641 93.8082C22.2013 93.6599 22.4934 93.4542 22.7404 93.1911C22.9874 92.9279 23.1845 92.6241 23.327 92.2821C23.4719 91.94 23.5431 91.5668 23.5431 91.165C23.5431 90.7631 23.4719 90.3971 23.327 90.0479C23.1822 89.6986 22.9827 89.3924 22.7285 89.1293C22.4744 88.8662 22.1776 88.6604 21.8427 88.5121C21.5055 88.3638 21.1445 88.2897 20.7597 88.2897C20.375 88.2897 20.0045 88.3662 19.6673 88.5193C19.3301 88.6724 19.0356 88.8805 18.7814 89.1412C18.5273 89.4044 18.3302 89.7106 18.1948 90.0598C18.0571 90.4091 17.9882 90.7822 17.9882 91.1769Z" fill="#CBA052"/>
<path d="M28.1831 87.4072H33.1324V88.3736H31.1327V94.916H30.1329V88.3736H28.1831V87.4072Z" fill="#CBA052"/>
<path d="M37.1963 87.4072H42.0435V88.3736H38.1985V90.6581H41.6326V91.6245H38.1985V93.952H42.1883V94.9184H37.1987V87.4096L37.1963 87.4072Z" fill="#CBA052"/>
<path d="M46.3921 87.4072H47.3919V93.9496H51.1752V94.916H46.3921V87.4072Z" fill="#CBA052"/>
</g>
<defs>
<clipPath id="clip0_8006_588">
<rect width="58" height="95" fill="white"/>
</clipPath>
</defs>
</svg>
