<svg width="60" height="46" viewBox="0 0 60 46" fill="none" xmlns="http://www.w3.org/2000/svg">
<path d="M17.5923 19.3449C16.591 16.1352 16.0491 12.7576 15.9961 9.34284C20.3978 6.61572 25.2275 5.17597 29.9983 5.17597C34.7691 5.17597 39.5987 6.61572 44.0004 9.34284C43.9474 12.7576 43.4056 16.1352 42.4043 19.3449H43.2976C44.3106 15.9946 44.8486 12.4392 44.8486 8.79781C40.2545 5.84408 35.1264 4.23438 29.9963 4.23438C24.8662 4.23438 19.7401 5.84213 15.144 8.79781C15.144 12.4392 15.6839 15.9946 16.695 19.3449H17.5883H17.5923Z" fill="#CBA052"/>
<path d="M32.9121 15.9189L35.8256 17.1711V14.3072C35.8256 14.3072 35.3584 12.6252 34.3689 12.553C33.3794 12.4807 32.9121 13.3754 32.9121 13.8052V15.9169V15.9189Z" fill="#CBA052"/>
<path d="M31.856 8.82166L33.5032 9.46633V6.99512L31.856 8.82166Z" fill="#CBA052"/>
<path d="M35.229 10.3246L36.8742 10.9693V8.49805L35.229 10.3246Z" fill="#CBA052"/>
<path d="M29.989 0.473656C29.9399 0.286118 29.5747 0.350584 28.9465 0.651427C28.2711 0.973758 27.8137 2.07359 27.5702 2.23573C27.3268 2.39592 27.3268 2.12829 27.0853 1.77861C26.8418 1.42893 26.6533 1.77861 26.6533 1.77861C26.6533 1.77861 26.0604 2.53072 25.548 3.0484C25.0356 3.56608 24.1718 3.41566 24.1718 3.41566C24.7922 3.81809 25.4126 3.6032 25.709 3.38831C26.0055 3.17343 26.4099 2.90579 26.7613 3.0484C27.1128 3.19101 27.2207 3.52311 27.6252 3.70478C28.0296 3.88646 28.0846 3.55046 28.705 3.6579C28.9386 3.69892 29.1801 3.70869 29.3902 3.70478V5.87515L28.436 6.2346V9.24107L26.4924 10.0459V6.98475L24.7117 7.7896V11.011L22.715 11.7631V8.37957L20.9873 9.23912V18.9579H29.9988V0.473656H29.989ZM26.8948 16.682L23.9813 17.9343V15.0704C23.9813 15.0704 24.4486 13.3884 25.4381 13.3161C26.4276 13.2438 26.8948 14.1386 26.8948 14.5683V16.6801V16.682Z" fill="#CBA052"/>
<path d="M12.7178 19.2305C15.5979 19.0723 18.4781 18.9903 21.3582 18.9356C22.7993 18.9004 24.2383 18.8926 25.6794 18.8731L30.0006 18.8516L34.3218 18.8711C35.7628 18.8926 37.2019 18.8984 38.643 18.9336C41.5231 18.9903 44.4033 19.0723 47.2834 19.2305C44.4033 19.3888 41.5231 19.4708 38.643 19.5275C37.2019 19.5626 35.7628 19.5705 34.3218 19.5919L30.0006 19.6115L25.6794 19.59C24.2403 19.5685 22.7993 19.5607 21.3582 19.5275C18.4781 19.4708 15.5979 19.3888 12.7178 19.2325" fill="#CBA052"/>
<path d="M7.22852 37.0235C11.0235 36.8575 14.8186 36.7715 18.6136 36.711C20.5101 36.6738 22.4086 36.666 24.3071 36.6445L30.0007 36.623L35.6942 36.6445C37.5927 36.668 39.4892 36.6738 41.3877 36.711C45.1828 36.7696 48.9778 36.8575 52.7728 37.0235C48.9778 37.1896 45.1828 37.2775 41.3877 37.3361C39.4912 37.3732 37.5927 37.381 35.6942 37.4025L30.0007 37.424L24.3071 37.4025C22.4086 37.381 20.5121 37.3732 18.6136 37.3361C14.8186 37.2775 11.0235 37.1896 7.22852 37.0235Z" fill="#CBA052"/>
<path d="M15.9746 45.5791V40.8379H15.9805L18.4012 44.2566L18.1401 44.2058L20.555 40.8379H20.5687V45.5791H19.9562V42.2366L19.9954 42.5472L18.252 45.0009H18.2402L16.4713 42.5472L16.5793 42.262V45.5791H15.9785H15.9746Z" fill="#CBA052"/>
<path d="M23.1426 43.2856C23.1426 42.9672 23.2034 42.6683 23.3252 42.387C23.4469 42.1057 23.6157 41.8557 23.8337 41.6369C24.0516 41.4181 24.3009 41.2462 24.5836 41.1231C24.8663 41 25.1726 40.9355 25.5005 40.9355C25.8284 40.9355 26.1268 40.9981 26.4115 41.1231C26.6942 41.2481 26.9455 41.42 27.1654 41.6369C27.3852 41.8557 27.556 42.1057 27.6797 42.387C27.8034 42.6683 27.8643 42.9692 27.8643 43.2856C27.8643 43.6021 27.8034 43.9166 27.6797 44.1999C27.556 44.4831 27.3852 44.7332 27.1654 44.9461C26.9455 45.161 26.6942 45.3271 26.4115 45.4482C26.1287 45.5693 25.8244 45.6299 25.5005 45.6299C25.1765 45.6299 24.8663 45.5713 24.5836 45.4521C24.3009 45.3329 24.0496 45.1688 23.8337 44.9559C23.6157 44.7449 23.4469 44.4968 23.3252 44.2116C23.2034 43.9264 23.1426 43.6177 23.1426 43.2837V43.2856ZM23.7806 43.2915C23.7806 43.5337 23.8258 43.7584 23.9141 43.9674C24.0045 44.1764 24.1262 44.362 24.2852 44.5242C24.4442 44.6863 24.6268 44.8113 24.8349 44.9032C25.043 44.995 25.2688 45.0399 25.5123 45.0399C25.7557 45.0399 25.9736 44.995 26.1837 44.9032C26.3938 44.8113 26.5724 44.6863 26.7275 44.5242C26.8807 44.364 27.0024 44.1784 27.0907 43.9674C27.1811 43.7584 27.2243 43.5298 27.2243 43.2837C27.2243 43.0375 27.1791 42.8148 27.0907 42.6C27.0004 42.387 26.8787 42.1995 26.7197 42.0373C26.5626 41.8771 26.3781 41.7502 26.17 41.6584C25.9619 41.5665 25.738 41.5216 25.4985 41.5216C25.259 41.5216 25.0293 41.5685 24.8212 41.6623C24.6131 41.756 24.4285 41.883 24.2715 42.0432C24.1144 42.2053 23.9927 42.3929 23.9083 42.6058C23.8238 42.8207 23.7806 43.0473 23.7806 43.2895V43.2915Z" fill="#CBA052"/>
<path d="M30.0986 40.9844H33.1653V41.5763H31.9265V45.581H31.3061V41.5763H30.0986V40.9844Z" fill="#CBA052"/>
<path d="M35.6802 40.9844H38.682V41.5763H36.3006V42.975H38.4268V43.5669H36.3006V44.9911H38.7724V45.583H35.6802V40.9883V40.9844Z" fill="#CBA052"/>
<path d="M41.3794 40.9844H41.9998V44.9891H44.344V45.581H41.3794V40.9863V40.9844Z" fill="#CBA052"/>
<path d="M45.5287 32.2017L43.106 24.7471H44.7944L46.4632 29.9884H46.4848L48.1732 24.7471H49.8734L47.3859 32.2017H45.5287Z" fill="#CBA052"/>
<path d="M52.3708 24.7471H50.7236V32.2017H52.3708V24.7471Z" fill="#CBA052"/>
<path d="M57.4086 24.7461C57.8778 24.7461 58.2764 24.8145 58.6042 24.9493C58.9321 25.086 59.2011 25.2638 59.4072 25.4865C59.6134 25.7092 59.7645 25.9631 59.8588 26.2484C59.953 26.5336 60.0001 26.8305 60.0001 27.1353C60.0001 27.44 59.953 27.7291 59.8588 28.0182C59.7645 28.3074 59.6134 28.5633 59.4072 28.786C59.2011 29.0087 58.9341 29.1884 58.6042 29.3232C58.2744 29.4599 57.8759 29.5264 57.4086 29.5264H55.677V32.1988H54.0298V24.7441H57.4086V24.7461ZM56.957 28.2546C57.1455 28.2546 57.3281 28.2409 57.5028 28.2136C57.6776 28.1862 57.8327 28.1316 57.9642 28.0515C58.0977 27.9714 58.2037 27.8581 58.2842 27.7115C58.3647 27.565 58.4059 27.3736 58.4059 27.1372C58.4059 26.9008 58.3647 26.7094 58.2842 26.5629C58.2037 26.4164 58.0977 26.3031 57.9642 26.223C57.8307 26.1429 57.6776 26.0882 57.5028 26.0608C57.3281 26.0335 57.1455 26.0198 56.957 26.0198H55.677V28.2546H56.957Z" fill="#CBA052"/>
<path d="M4.8768 25.9866C4.49593 25.7229 4.04633 25.592 3.52214 25.592C3.07647 25.592 2.69363 25.676 2.37754 25.842C2.05949 26.0081 1.79837 26.2327 1.59223 26.5121C1.38608 26.7934 1.23491 27.1138 1.13674 27.4752C1.03858 27.8366 0.99146 28.2097 0.99146 28.5984C0.99146 29.0224 1.04054 29.4228 1.13674 29.7999C1.23491 30.1769 1.38608 30.507 1.59223 30.7883C1.79837 31.0697 2.06145 31.2924 2.38147 31.4584C2.70148 31.6244 3.08629 31.7085 3.53195 31.7085C3.85982 31.7085 4.15039 31.6557 4.40562 31.5463C4.65888 31.4389 4.87877 31.2904 5.06332 31.099C5.24787 30.9075 5.39315 30.6809 5.4972 30.4172C5.60126 30.1534 5.66408 29.8702 5.68568 29.5635H6.6791C6.58094 30.4992 6.25699 31.2279 5.70727 31.7475C5.15755 32.2672 4.40365 32.527 3.44949 32.527C2.87032 32.527 2.36576 32.4293 1.93384 32.23C1.50191 32.0327 1.14263 31.7612 0.857956 31.4135C0.571316 31.0657 0.357318 30.6575 0.213998 30.1867C0.0706783 29.7159 0 29.2099 0 28.6688C0 28.1276 0.0765682 27.6197 0.229705 27.145C0.382841 26.6703 0.608619 26.2562 0.905075 25.9026C1.20153 25.549 1.57063 25.2696 2.01237 25.0645C2.45411 24.8594 2.9626 24.7578 3.53392 24.7578C3.92461 24.7578 4.29371 24.8106 4.64121 24.9141C4.98871 25.0176 5.29891 25.17 5.57181 25.3712C5.8447 25.5724 6.07048 25.8244 6.2511 26.1253C6.43173 26.4261 6.55149 26.7758 6.60646 27.1704H5.61304C5.50113 26.643 5.25572 26.2484 4.8768 25.9846" fill="#CBA052"/>
<path d="M11.2478 24.9385L14.1633 32.3658H13.0658L12.251 30.129H9.09404L8.25768 32.3658H7.24463L10.1503 24.9385H11.2478ZM11.9388 29.2968L10.6941 25.8332H10.6725L9.40817 29.2968H11.9388Z" fill="#CBA052"/>
<path d="M18.8433 25.9514C18.5115 25.7111 18.0894 25.592 17.5731 25.592C17.365 25.592 17.1588 25.6135 16.9566 25.6545C16.7544 25.6955 16.5757 25.7658 16.4187 25.8616C16.2616 25.9592 16.1359 26.0882 16.0417 26.2523C15.9475 26.4144 15.9004 26.6176 15.9004 26.8598C15.9004 27.0884 15.9691 27.274 16.1045 27.4166C16.24 27.5592 16.4206 27.6744 16.6484 27.7643C16.8741 27.8541 17.1313 27.9284 17.416 27.987C17.7027 28.0456 17.9932 28.1101 18.2897 28.1804C18.5861 28.2488 18.8767 28.3308 19.1633 28.4246C19.448 28.5183 19.7052 28.6453 19.931 28.8036C20.1568 28.9637 20.3393 29.165 20.4748 29.4072C20.6103 29.6494 20.679 29.9542 20.679 30.3234C20.679 30.718 20.5906 31.056 20.412 31.3373C20.2333 31.6186 20.0056 31.8471 19.7268 32.023C19.448 32.2007 19.1359 32.3277 18.7923 32.4078C18.4467 32.4879 18.1032 32.527 17.7635 32.527C17.3453 32.527 16.9507 32.4762 16.5777 32.3707C16.2047 32.2672 15.8768 32.1089 15.596 31.8979C15.3133 31.687 15.0915 31.4154 14.9266 31.0872C14.7636 30.7571 14.6812 30.3683 14.6812 29.9171H15.6216C15.6216 30.2296 15.6824 30.4973 15.8042 30.7239C15.9259 30.9485 16.0869 31.1341 16.2852 31.2806C16.4834 31.4252 16.7151 31.5346 16.9802 31.603C17.2452 31.6733 17.5161 31.7065 17.7949 31.7065C18.0187 31.7065 18.2426 31.685 18.4683 31.644C18.6941 31.603 18.8983 31.5307 19.0809 31.431C19.2615 31.3314 19.4087 31.1927 19.5207 31.0208C19.6326 30.8469 19.6875 30.6262 19.6875 30.3547C19.6875 30.0987 19.6188 29.8897 19.4834 29.7315C19.3479 29.5713 19.1653 29.4424 18.9395 29.3408C18.7137 29.2411 18.4566 29.1591 18.1719 29.0966C17.8852 29.0341 17.5947 28.9696 17.2982 28.9051C17.0018 28.8387 16.7112 28.7625 16.4246 28.6766C16.1379 28.5906 15.8827 28.4754 15.6569 28.3328C15.4311 28.1902 15.2485 28.0065 15.1131 27.7819C14.9776 27.5572 14.9089 27.274 14.9089 26.934C14.9089 26.559 14.9855 26.2366 15.1386 25.9612C15.2917 25.6877 15.4959 25.4611 15.7492 25.2853C16.0024 25.1094 16.293 24.9766 16.617 24.8907C16.9409 24.8047 17.2747 24.7598 17.6163 24.7598C17.9991 24.7598 18.3545 24.8047 18.6823 24.8946C19.0102 24.9844 19.2968 25.127 19.5442 25.3204C19.7916 25.5138 19.986 25.76 20.1293 26.053C20.2726 26.348 20.3511 26.6996 20.3649 27.1079H19.4245C19.3695 26.5746 19.1751 26.1878 18.8453 25.9475" fill="#CBA052"/>
<path d="M21.2939 25.7687V24.9385H27.2643V25.7687H24.7749V32.3638H23.7834V25.7687H21.2939Z" fill="#CBA052"/>
<path d="M29.2898 24.9385V31.5316H33.2419V32.3638H28.2983V24.9385H29.2898Z" fill="#CBA052"/>
<path d="M39.4739 24.9385V25.7687H35.3137V28.1305H39.1912V28.9627H35.3137V31.5316H39.5054V32.3638H34.3203V24.9385H39.4739Z" fill="#CBA052"/>
</svg>
